<?xml version="1.0" encoding="UTF-8"?>
<svg width="300px" height="300px" viewBox="0 0 300 300" version="1.1" xmlns="http://www.w3.org/2000/svg" xmlns:xlink="http://www.w3.org/1999/xlink">
    <!-- Generator: Sketch 53.1 (72631) - https://sketchapp.com -->
    <title>icon</title>
    <desc>Created with Sketch.</desc>
    <defs>
        <linearGradient x1="0%" y1="0%" x2="100%" y2="100%" id="linearGradient-1">
            <stop stop-color="#1DDACB" offset="0%"></stop>
            <stop stop-color="#6078EA" offset="100%"></stop>
        </linearGradient>
    </defs>
    <g id="icon" stroke="none" stroke-width="1" fill="none" fill-rule="evenodd">
        <circle id="Oval" fill="url(#linearGradient-1)" cx="150" cy="150" r="150"></circle>
        <g transform="translate(77.000000, 51.000000)" fill="#FFFFFF" fill-rule="nonzero" id="Group">
            <g transform="translate(73.000000, 99.000000) scale(-1, 1) rotate(-180.000000) translate(-73.000000, -99.000000) ">
                <path d="M59.3954545,196.152672 C55.9113636,195.312977 49.9386364,191.618321 45.7909091,187.923664 C36.1681818,179.358779 33.1818182,170.290076 33.1818182,150.641221 C33.1818182,136.534351 32.85,135.358779 28.8681818,131.496183 C24.7204545,127.633588 24.5545455,126.625954 25.55,117.053435 C26.5454545,107.145038 29.8636364,100.763359 34.1772727,100.763359 C35.3386364,100.763359 36.6659091,98.5801527 37.3295455,95.8931298 C37.8272727,93.0381679 40.6477273,87.8320611 43.3022727,84.1374046 C45.9568182,80.2748092 48.1136364,76.9160305 48.1136364,76.5801527 C48.1136364,75.2366412 23.3931818,58.9465649 12.1113636,52.9007634 L0,46.351145 L0,23.1755725 L0,0 L27.2090909,0 C42.3068182,0 54.9159091,0.503816794 55.2477273,1.34351145 C55.7454545,2.01526718 54.75,6.88549618 53.0909091,12.259542 C50.2704545,21.4961832 50.2704545,22 52.925,19.480916 C56.4090909,16.2900763 58.0681818,16.1221374 58.0681818,18.8091603 C58.0681818,21.3282443 71.3409091,41.9847328 73,41.9847328 C74.6590909,41.9847328 87.9318182,21.3282443 87.9318182,18.8091603 C87.9318182,16.1221374 89.5909091,16.2900763 93.075,19.480916 C95.7295455,22 95.7295455,21.4961832 92.9090909,12.259542 C91.25,6.88549618 90.2545455,2.01526718 90.7522727,1.34351145 C91.0840909,0.503816794 103.693182,0 118.790909,0 L146,0 L146,23.1755725 L146,46.351145 L134.054545,52.9007634 C123.934091,58.2748092 116.136364,63.3129771 100.706818,74.0610687 C99.7113636,74.7328244 101.038636,77.7557252 103.361364,80.778626 C105.684091,83.9694656 108.836364,89.6793893 110.329545,93.5419847 C111.988636,97.5725191 114.145455,100.763359 115.472727,100.763359 C118.956818,100.763359 122.275,107.480916 123.436364,116.885496 C124.431818,124.610687 123.934091,126.122137 120.284091,130.656489 C116.468182,135.19084 116.136364,137.038168 116.136364,150.473282 C116.136364,169.618321 114.311364,175.832061 106.015909,185.40458 C101.038636,191.114504 97.2227273,193.633588 90.7522727,195.648855 C81.4613636,198.503817 68.6863636,198.671756 59.3954545,196.152672 Z M74.6590909,160.381679 C82.4568182,160.381679 91.9136364,160.885496 95.7295455,161.725191 L102.697727,162.900763 L104.356818,156.687023 C107.840909,144.259542 107.177273,143.083969 98.0522727,144.091603 C92.5772727,144.59542 87.2681818,143.755725 82.125,141.908397 C74.6590909,138.885496 73.9954545,138.885496 66.1977273,141.908397 C60.7227273,143.755725 55.0818182,144.59542 49.7727273,144.091603 L41.8090909,143.251908 L42.6386364,149.29771 C44.6295455,162.061069 45.625,163.068702 53.4227273,161.725191 C57.4045455,160.885496 66.8613636,160.381679 74.6590909,160.381679 Z M76.3181818,127.633588 C76.3181818,122.763359 85.4431818,113.022901 91.4159091,111.847328 C99.2136364,110.335878 107.177273,114.534351 109.665909,121.419847 C112.154545,128.641221 116.136364,127.969466 116.136364,120.244275 C116.136364,111.007634 114.477273,107.480916 110.163636,107.480916 C107.509091,107.480916 106.181818,106.473282 106.181818,104.625954 C106.015909,100.931298 98.0522727,85.480916 97.8863636,88.6717557 C97.7204545,93.7099237 92.0795455,102.946565 87.2681818,105.969466 C81.1295455,109.832061 69.6818182,110.167939 63.0454545,106.641221 C57.9022727,103.954198 51.4318182,94.5496183 51.4318182,89.6793893 C51.4318182,86.9923664 51.1,87.1603053 48.6113636,90.519084 C47.1181818,92.870229 44.9613636,97.2366412 43.8,100.59542 C42.4727273,104.625954 40.4818182,106.977099 37.8272727,107.480916 C34.5090909,108.320611 34.0113636,109.664122 33.5136364,117.221374 C33.1818182,124.274809 33.5136364,125.954198 35.5045455,125.954198 C36.9977273,125.954198 38.1590909,124.946565 38.1590909,123.603053 C38.1590909,122.259542 39.8181818,119.068702 41.975,116.549618 C44.7954545,113.19084 47.45,112.015267 52.4272727,111.847328 C62.7136364,111.679389 68.3545455,116.21374 72.0045455,128.137405 C73.1659091,132 76.3181818,131.832061 76.3181818,127.633588 Z M85.2772727,98.0763359 C90.5863636,92.7022901 90.5863636,90.519084 86.1068182,86.3206107 C80.9636364,81.6183206 67.6909091,81.9541985 62.7136364,86.8244275 C59.5613636,90.1832061 59.3954545,91.0229008 61.2204545,94.7175573 C65.8659091,103.282443 78.3090909,104.961832 85.2772727,98.0763359 Z M74.4931818,67.1755725 C78.9727273,67.1755725 84.7795455,68.0152672 87.2681818,68.8549618 C92.7431818,71.0381679 93.5727273,70.1984733 92.2454545,64.6564885 C91.4159091,61.2977099 88.7613636,59.1145038 82.125,56.0916031 L73,51.8931298 L63.875,56.0916031 C57.4045455,59.1145038 54.5840909,61.2977099 53.7545455,64.4885496 C52.2613636,70.870229 54.0863636,72.3816794 60.5568182,69.5267176 C63.7090909,68.1832061 70.0136364,67.1755725 74.4931818,67.1755725 Z" id="Shape"></path>
            </g>
        </g>
    </g>
</svg>