<svg height="128pt" preserveAspectRatio="xMidYMid meet" viewBox="0 0 93 128" width="93pt" xmlns="http://www.w3.org/2000/svg"><path d="m368 1208c-21-5-57-27-82-49-58-51-76-105-76-222 0-84-2-91-26-114-25-23-26-29-20-86 6-59 26-97 52-97 7 0 15-13 19-29 3-17 20-48 36-70 16-23 29-43 29-45 0-8-149-105-217-141l-73-39v-138-138h164c91 0 167 3 169 8 3 4-3 33-13 65-17 55-17 58-1 43 21-19 31-20 31-4 0 15 80 138 90 138s90-123 90-138c0-16 10-15 31 4 16 15 16 12-1-43-10-32-16-61-13-65 2-5 78-8 169-8h164v138 138l-72 39c-61 32-108 62-201 126-6 4 2 22 16 40 14 19 33 53 42 76 10 24 23 43 31 43 21 0 41 40 48 96 6 46 3 55-19 82-23 27-25 38-25 118 0 114-11 151-61 208-30 34-53 49-92 61-56 17-133 18-189 3zm92-213c47 0 104 3 127 8l42 7 10-37c21-74 17-81-38-75-33 3-65-2-96-13-45-18-49-18-96 0-33 11-67 16-99 13l-48-5 5 36c12 76 18 82 65 74 24-5 81-8 128-8zm10-195c0-29 55-87 91-94 47-9 95 16 110 57 15 43 39 39 39-7 0-55-10-76-36-76-16 0-24-6-24-17-1-22-49-114-50-95-1 30-35 85-64 103-37 23-106 25-146 4-31-16-70-72-70-101 0-16-2-15-17 5-9 14-22 40-29 60-8 24-20 38-36 41-20 5-23 13-26 58-2 42 0 52 12 52 9 0 16-6 16-14s10-27 23-42c17-20 33-27 63-28 62-1 96 26 118 97 7 23 26 22 26-3zm54-176c32-32 32-45 5-70-31-28-111-26-141 3-19 20-20 25-9 47 28 51 103 61 145 20zm-65-184c27 0 62 5 77 10 33 13 38 8 30-25-5-20-21-33-61-51l-55-25-55 25c-39 18-56 31-61 50-9 38 2 47 41 30 19-8 57-14 84-14z" transform="matrix(.1 0 0 -.1 0 128)"/></svg>